<svg version="1" xmlns="http://www.w3.org/2000/svg" width="757.333" height="757.333" viewBox="0 0 568.000000 568.000000"><path d="M446.5 25.1c-1.1.7-4 3.3-6.5 6-3.9 4.1-19.5 20.8-28.4 30.3-14.9 16-25.7 27.6-28.9 31-27.3 29.1-27.9 29.8-26.7 35 2.2 9.8 4.3 10.6 28.3 10.6h19.5v49.2c0 30.6.4 50.3 1 51.9 1.3 3.4 7 6.9 11.2 6.9 4.3 0 8.6-2.7 10.4-6.5 2-4.2 2.1-114.6.1-118.5-3-5.8-4.8-6.5-18-7l-12.4-.5 4.1-4.5c2.2-2.5 9.1-9.9 15.3-16.5 6.1-6.6 13.8-14.9 17.1-18.4 3.2-3.6 8.9-9.7 12.6-13.5l6.7-7.1 3.6 4c2 2.2 6.2 6.7 9.3 10 3.2 3.4 11.6 12.4 18.7 20 7.2 7.7 15.7 16.8 18.9 20.2l5.9 6.3h-11.5c-13.1 0-16.8 1.2-19.5 6.3-1.4 2.8-1.6 10.3-1.6 69.2 0 61.8.1 66.3 1.8 68.9 4.2 6.4 13.8 7.5 19.1 2.2 2.9-3 3.2-9.1 3.2-63.1 0-30.3.1-56 .1-57.3l.1-2.2h19.3c13.2 0 19.9-.4 21.6-1.3 5.6-2.8 8.4-10.4 5.7-15.4-1.8-3.4-2.7-4.5-18.2-20.9-6.7-7.1-13.6-14.5-15.4-16.4-1.8-1.9-8.7-9.3-15.4-16.5-6.6-7.1-15.2-16.3-19.1-20.4C458.4 25.6 457.8 25 453 24.5c-2.6-.3-5.3-.1-6.5.6zM278 133.7c-2.6 1.8-12.1 9.6-18 14.9-1.9 1.8-10.2 8.9-18.5 15.9-8.2 7-17.2 14.7-20 17.1-2.7 2.5-10.4 9-17.1 14.7-6.6 5.6-12.8 11.2-13.8 12.5-4.3 5.6-2.4 14.7 3.9 17.6 2.6 1.3 7.1 1.6 22.3 1.6h19v157.4c0 172.8-.4 161.1 6 164.8 2.7 1.6 6.5 1.8 43.1 1.5l40.1-.2 3.2-3.3 3.3-3.2.2-23.3c.2-12.7.1-24.6-.2-26.4-1.7-10.3-17.2-12.5-22.1-3.2-1.2 2.5-1.6 6.5-1.6 19.5V528H260v-12.3c-.1-6.7-.2-78-.3-158.4l-.2-146.3-3.3-3.2c-3.2-3.2-3.5-3.3-13.3-3.6l-10.1-.4 3.5-3.1c1.9-1.8 4.5-4.1 5.9-5.2 1.3-1.1 5.3-4.5 8.8-7.5 3.5-3 7.5-6.4 8.9-7.5 1.3-1.1 3.3-2.9 4.5-4 1.2-1.1 6-5.3 10.8-9.4l8.8-7.3 20.2 17.4c11.2 9.5 21.7 18.5 23.3 20 1.7 1.4 4.1 3.5 5.5 4.7l2.5 2-9.4.1c-10.6 0-14.9 1.8-17.1 6.9-.8 2-1.2 11.9-1.2 32.3 0 25.3.2 29.9 1.6 32.6 3.6 7 13.2 8.1 19 2.3l3.1-3.1.2-18.8c.1-10.3.2-20.8.3-23.5V228h18.9c10.5 0 20.1-.5 21.7-1 4.4-1.6 6.9-5.7 6.9-11.1 0-3.3-.6-5.4-2-6.9-1.1-1.3-15.9-14.3-33-28.9-34.5-29.6-32.6-28-44.9-38.6-11.5-9.9-16.1-11.6-21.6-7.8z"/><path d="M110 223.7c-2.1 1.4-19.6 16.1-23.6 19.8-.6.5-2.2 1.9-3.5 3-9.3 7.8-52 44.5-54.4 46.7-1.6 1.5-3.3 2.8-3.7 2.8-1.4 0-4.8 6.9-4.8 10 0 4.4 3.4 9.6 7.2 10.9 1.8.6 10.9 1.1 21.9 1.1H68l.2 113.5.3 113.5 3.3 3.2 3.2 3.3h82l3.2-3.3 3.3-3.2.3-113.5.2-113.5h19.1c21.2 0 24.1-.6 27.2-6.1 3.4-6.1 1.9-11.3-5.2-17.4-1.9-1.7-19.7-16.9-39.5-33.8-19.9-17-37.4-32-39-33.4-6.2-5.5-12-6.8-16.6-3.6zm23.1 40.8c9 7.7 17.5 15 18.9 16.3 1.4 1.3 5.4 4.7 8.9 7.5l6.3 5.2-9.8.5c-6.2.4-10.7 1.1-12.2 2-5.4 3.6-5.2-1.5-5.2 119.9V528H92l-.2-113.5-.3-113.5-3.3-3.2c-3.1-3.2-3.5-3.3-13.3-3.8l-10.1-.5 2.8-2.5c1.6-1.4 7.2-6.1 12.4-10.5s10.6-9 12-10.2c2.6-2.2 3.3-2.8 12.1-10.4 3-2.5 6.8-5.8 8.4-7.2 1.7-1.5 3.3-2.5 3.6-2.4.4.1 8.1 6.5 17 14.2zM402.5 270.7c-25 3-49.2 14.9-67.4 33.3-15.6 15.7-25 32.9-30.8 56-2.2 8.9-2.6 34.1-.7 44 8.1 42.8 39.4 77.4 81 89.5 11.6 3.4 17.1 4 33.4 4 10.6-.1 15.5-.6 23-2.4 23.5-5.8 42.3-16.7 58.7-34.1 4.8-5 14.3-18.3 14.3-19.8 0-.6.3-1.2.8-1.4 1.2-.5 7.7-15.5 10-23 5.2-16.7 6.2-38.4 2.8-57.4-1-5.4-4.7-16.7-6.3-19.1-2.2-3.3-6.1-5.1-10.6-4.8-5 .3-8.9 3.3-10.4 7.9-1.1 3.2-1 4.7 1.3 12.4 3.2 11.2 4.1 18.2 3.9 29.5-.4 15.3-2.7 25.1-9 38.1-11.3 23.6-32.4 40.7-58.6 47.8-10.9 2.9-32.8 3.1-42.9.4-12.1-3.2-26.2-9.8-33.5-15.7-19-15.4-30.7-34.7-34.3-56.9-.9-5.9-.9-26.3.2-32 3.9-22.2 19.8-45.8 39.1-58.2 10.7-6.9 17.8-9.8 33-13.5 4-1 24.2-1.1 30.4-.2 11.8 1.7 32.7 10.2 38.9 15.9 7.8 7.1 13.4 9 19 6.3 6.4-3.1 8.6-11.5 4.6-17-5.6-7.6-24.4-19-40-24.2-14.7-4.9-35.1-7.1-49.9-5.4z"/><path d="M408.8 320.3c-3 2.6-4.8 5.7-4.8 8.6 0 1.5-1.1 2.3-4.2 3.3-10.6 3-19.2 9.9-23.5 18.5-4.9 10.2-1.7 23.1 7.9 31.8 7.1 6.4 15.6 10.1 32.5 14 7.4 1.7 15.9 6.3 16.9 9 .9 2.3-4.2 6.2-9.9 7.6-6.7 1.6-17.1.5-28.8-2.9-5.2-1.6-10.3-2.8-11.3-2.6-6 .9-10.5 5.1-10.7 10.1-.3 5.6.1 7.1 3 9.9 2.8 2.7 7.8 4.4 26.2 9 .8.2 1.9 2.2 2.5 4.6 1.1 5.3 5.8 8.8 11.5 8.8 5 0 10.4-4.5 11.6-9.7.7-3.2 1.4-3.9 4.9-4.9 19.8-5.7 29.8-23.4 22.5-39.9-5-11.4-17.3-18.9-39.5-24-11.4-2.6-18.4-7.3-17.2-11.3.4-1.1 2.8-2.8 5.7-4 7-2.9 19.1-2.4 31.7 1.3 11 3.2 14.9 2.9 18.6-1.6 1.4-1.7 2.7-3.4 2.7-3.7.7-4.2.6-6.9-.3-8.6-2.6-5-5.1-6.5-16.9-9.7-8.1-2.2-11.9-3.7-11.9-4.7 0-2.8-3.1-7.8-5.9-9.5-4.1-2.4-10-2.2-13.3.6zM484.5 504.3c-6.8 2.2-8.9 6.5-8.8 17.9l.1 5.8h-24.9c-19.4 0-25-.3-25.6-1.3-1.6-2.6-5.8-4.7-9.3-4.7-7.9 0-12.1 5.2-12.1 14.9-.1 7.3 2.6 12.4 7.3 14 4.7 1.6 78.5 1.5 81.8-.2 1.3-.7 3.4-2.7 4.6-4.5 2-3 2.2-4.3 2-19.2l-.1-16-3-3c-3.7-3.7-8-5-12-3.7z"/></svg>